<svg xmlns="http://www.w3.org/2000/svg" width="160" height="46" viewBox="0 0 160 46" fill="none">
<path fill-rule="evenodd" clip-rule="evenodd" d="M29.2541 10.3156C23.95 11.5573 20 16.3174 20 22C20 24.3368 20.6679 26.5175 21.8233 28.3618C19.7764 29.4092 17.4572 30 15 30C6.71573 30 0 23.2843 0 15C0 6.71573 6.71573 0 15 0C21.6484 0 27.2866 4.32538 29.2541 10.3156Z" fill="white" style="&#10;    fill: black;&#10;"/>
<circle cx="32" cy="22" r="10" fill="white" style="&#10;    fill: black;&#10;"/>
<circle cx="20" cy="39" r="7" fill="white" style="&#10;    fill: black;&#10;"/>
<path d="M55.9091 28H49.0085V7.63636H56.0483C58.0701 7.63636 59.8068 8.04403 61.2585 8.85938C62.7169 9.66809 63.8371 10.8314 64.6193 12.3494C65.4015 13.8674 65.7926 15.6837 65.7926 17.7983C65.7926 19.9195 65.3982 21.7424 64.6094 23.267C63.8272 24.7917 62.697 25.9616 61.2188 26.777C59.7472 27.5923 57.9773 28 55.9091 28ZM52.6974 24.8082H55.7301C57.1487 24.8082 58.3319 24.5497 59.2798 24.0327C60.2277 23.509 60.9403 22.7301 61.4176 21.696C61.8949 20.6553 62.1335 19.3561 62.1335 17.7983C62.1335 16.2405 61.8949 14.9479 61.4176 13.9205C60.9403 12.8864 60.2344 12.1141 59.2997 11.6037C58.3717 11.0866 57.2183 10.8281 55.8395 10.8281H52.6974V24.8082ZM67.7385 28V12.7273H71.3379V28H67.7385ZM69.5482 10.5597C68.9781 10.5597 68.4875 10.3707 68.0766 9.9929C67.6656 9.60843 67.4601 9.14773 67.4601 8.61079C67.4601 8.06723 67.6656 7.60653 68.0766 7.22869C68.4875 6.84422 68.9781 6.65199 69.5482 6.65199C70.1249 6.65199 70.6154 6.84422 71.0197 7.22869C71.4307 7.60653 71.6362 8.06723 71.6362 8.61079C71.6362 9.14773 71.4307 9.60843 71.0197 9.9929C70.6154 10.3707 70.1249 10.5597 69.5482 10.5597ZM87.2813 12.7273L81.8424 28H77.8651L72.4262 12.7273H76.2643L79.7742 24.0724H79.9333L83.4532 12.7273H87.2813ZM88.3721 28V12.7273H91.9715V28H88.3721ZM90.1817 10.5597C89.6117 10.5597 89.1211 10.3707 88.7102 9.9929C88.2992 9.60843 88.0937 9.14773 88.0937 8.61079C88.0937 8.06723 88.2992 7.60653 88.7102 7.22869C89.1211 6.84422 89.6117 6.65199 90.1817 6.65199C90.7585 6.65199 91.249 6.84422 91.6533 7.22869C92.0643 7.60653 92.2698 8.06723 92.2698 8.61079C92.2698 9.14773 92.0643 9.60843 91.6533 9.9929C91.249 10.3707 90.7585 10.5597 90.1817 10.5597ZM106.344 16.7642L103.063 17.1222C102.97 16.7907 102.807 16.4792 102.575 16.1875C102.35 15.8958 102.045 15.6605 101.661 15.4815C101.276 15.3026 100.806 15.2131 100.249 15.2131C99.4997 15.2131 98.8699 15.3755 98.3595 15.7003C97.8557 16.0251 97.6072 16.446 97.6138 16.9631C97.6072 17.4072 97.7696 17.7685 98.101 18.0469C98.4391 18.3253 98.9959 18.554 99.7715 18.733L102.377 19.2898C103.822 19.6013 104.896 20.0952 105.598 20.7713C106.307 21.4474 106.665 22.3324 106.672 23.4261C106.665 24.3873 106.384 25.2358 105.827 25.9716C105.277 26.7008 104.511 27.2708 103.53 27.6818C102.549 28.0928 101.422 28.2983 100.149 28.2983C98.28 28.2983 96.7752 27.9072 95.6351 27.125C94.4949 26.3362 93.8155 25.2391 93.5967 23.8338L97.1067 23.4957C97.2658 24.1851 97.6038 24.7055 98.1209 25.0568C98.6379 25.4081 99.3107 25.5838 100.139 25.5838C100.994 25.5838 101.681 25.4081 102.198 25.0568C102.721 24.7055 102.983 24.2713 102.983 23.7543C102.983 23.3168 102.814 22.9555 102.476 22.6705C102.145 22.3854 101.628 22.1667 100.925 22.0142L98.3197 21.4673C96.8548 21.1624 95.771 20.6487 95.0683 19.9261C94.3657 19.197 94.0177 18.2756 94.0243 17.1619C94.0177 16.2206 94.2729 15.4053 94.7899 14.7159C95.3136 14.0199 96.0394 13.483 96.9675 13.1051C97.9021 12.7206 98.9793 12.5284 100.199 12.5284C101.989 12.5284 103.397 12.9096 104.425 13.6719C105.459 14.4342 106.099 15.465 106.344 16.7642ZM108.24 28V12.7273H111.839V28H108.24ZM110.05 10.5597C109.48 10.5597 108.989 10.3707 108.578 9.9929C108.167 9.60843 107.962 9.14773 107.962 8.61079C107.962 8.06723 108.167 7.60653 108.578 7.22869C108.989 6.84422 109.48 6.65199 110.05 6.65199C110.626 6.65199 111.117 6.84422 111.521 7.22869C111.932 7.60653 112.138 8.06723 112.138 8.61079C112.138 9.14773 111.932 9.60843 111.521 9.9929C111.117 10.3707 110.626 10.5597 110.05 10.5597ZM120.803 28.2983C119.311 28.2983 118.019 27.9702 116.925 27.3139C115.831 26.6577 114.983 25.7396 114.379 24.5597C113.783 23.3797 113.485 22.0009 113.485 20.4233C113.485 18.8456 113.783 17.4635 114.379 16.277C114.983 15.0904 115.831 14.169 116.925 13.5128C118.019 12.8565 119.311 12.5284 120.803 12.5284C122.294 12.5284 123.587 12.8565 124.681 13.5128C125.774 14.169 126.62 15.0904 127.216 16.277C127.819 17.4635 128.121 18.8456 128.121 20.4233C128.121 22.0009 127.819 23.3797 127.216 24.5597C126.62 25.7396 125.774 26.6577 124.681 27.3139C123.587 27.9702 122.294 28.2983 120.803 28.2983ZM120.823 25.4148C121.631 25.4148 122.308 25.1927 122.851 24.7486C123.395 24.2978 123.799 23.6946 124.064 22.9389C124.336 22.1832 124.472 21.3414 124.472 20.4134C124.472 19.4787 124.336 18.6335 124.064 17.8778C123.799 17.1155 123.395 16.509 122.851 16.0582C122.308 15.6075 121.631 15.3821 120.823 15.3821C119.994 15.3821 119.305 15.6075 118.754 16.0582C118.211 16.509 117.803 17.1155 117.531 17.8778C117.266 18.6335 117.134 19.4787 117.134 20.4134C117.134 21.3414 117.266 22.1832 117.531 22.9389C117.803 23.6946 118.211 24.2978 118.754 24.7486C119.305 25.1927 119.994 25.4148 120.823 25.4148ZM133.375 19.0511V28H129.776V12.7273H133.216V15.3224H133.395C133.747 14.4673 134.307 13.7879 135.076 13.2841C135.851 12.7803 136.809 12.5284 137.949 12.5284C139.003 12.5284 139.921 12.7538 140.704 13.2045C141.492 13.6553 142.102 14.3082 142.533 15.1634C142.971 16.0185 143.186 17.0559 143.179 18.2756V28H139.58V18.8324C139.58 17.8116 139.315 17.0128 138.785 16.4361C138.261 15.8594 137.535 15.571 136.607 15.571C135.977 15.571 135.417 15.7102 134.927 15.9886C134.443 16.2604 134.062 16.6548 133.783 17.1719C133.511 17.6889 133.375 18.3153 133.375 19.0511Z" fill="white" style="&#10;    fill: black;&#10;"/>
<path d="M90.4063 37.5H89.4375C89.3802 37.2214 89.2799 36.9766 89.1367 36.7656C88.9961 36.5547 88.8242 36.3776 88.6211 36.2344C88.4206 36.0885 88.1979 35.9792 87.9531 35.9062C87.7083 35.8333 87.4531 35.7969 87.1875 35.7969C86.7031 35.7969 86.2643 35.9193 85.8711 36.1641C85.4805 36.4089 85.1693 36.7695 84.9375 37.2461C84.7083 37.7227 84.5938 38.3073 84.5938 39C84.5938 39.6927 84.7083 40.2773 84.9375 40.7539C85.1693 41.2305 85.4805 41.5911 85.8711 41.8359C86.2643 42.0807 86.7031 42.2031 87.1875 42.2031C87.4531 42.2031 87.7083 42.1667 87.9531 42.0937C88.1979 42.0208 88.4206 41.9128 88.6211 41.7695C88.8242 41.6237 88.9961 41.4453 89.1367 41.2344C89.2799 41.0208 89.3802 40.776 89.4375 40.5H90.4063C90.3333 40.9089 90.2005 41.2747 90.0078 41.5977C89.8151 41.9206 89.5755 42.1953 89.2891 42.4219C89.0026 42.6458 88.681 42.8164 88.3242 42.9336C87.9701 43.0508 87.5911 43.1094 87.1875 43.1094C86.5052 43.1094 85.8984 42.9427 85.3672 42.6094C84.8359 42.276 84.418 41.8021 84.1133 41.1875C83.8086 40.5729 83.6563 39.8437 83.6563 39C83.6563 38.1562 83.8086 37.4271 84.1133 36.8125C84.418 36.1979 84.8359 35.724 85.3672 35.3906C85.8984 35.0573 86.5052 34.8906 87.1875 34.8906C87.5911 34.8906 87.9701 34.9492 88.3242 35.0664C88.681 35.1836 89.0026 35.3555 89.2891 35.582C89.5755 35.806 89.8151 36.0794 90.0078 36.4023C90.2005 36.7227 90.3333 37.0885 90.4063 37.5ZM93.7342 43.125C93.1925 43.125 92.7173 42.9961 92.3084 42.7383C91.9021 42.4805 91.5844 42.1198 91.3553 41.6562C91.1287 41.1927 91.0154 40.651 91.0154 40.0312C91.0154 39.4062 91.1287 38.8607 91.3553 38.3945C91.5844 37.9284 91.9021 37.5664 92.3084 37.3086C92.7173 37.0508 93.1925 36.9219 93.7342 36.9219C94.2758 36.9219 94.7498 37.0508 95.1561 37.3086C95.5649 37.5664 95.8826 37.9284 96.1092 38.3945C96.3383 38.8607 96.4529 39.4062 96.4529 40.0312C96.4529 40.651 96.3383 41.1927 96.1092 41.6562C95.8826 42.1198 95.5649 42.4805 95.1561 42.7383C94.7498 42.9961 94.2758 43.125 93.7342 43.125ZM93.7342 42.2969C94.1456 42.2969 94.4842 42.1914 94.7498 41.9805C95.0154 41.7695 95.212 41.4922 95.3396 41.1484C95.4673 40.8047 95.5311 40.4323 95.5311 40.0312C95.5311 39.6302 95.4673 39.2565 95.3396 38.9102C95.212 38.5638 95.0154 38.2839 94.7498 38.0703C94.4842 37.8568 94.1456 37.75 93.7342 37.75C93.3227 37.75 92.9842 37.8568 92.7186 38.0703C92.4529 38.2839 92.2563 38.5638 92.1287 38.9102C92.0011 39.2565 91.9373 39.6302 91.9373 40.0312C91.9373 40.4323 92.0011 40.8047 92.1287 41.1484C92.2563 41.4922 92.4529 41.7695 92.7186 41.9805C92.9842 42.1914 93.3227 42.2969 93.7342 42.2969ZM98.232 39.3906V43H97.3102V37H98.2008V37.9375H98.2789C98.4195 37.6328 98.6331 37.388 98.9195 37.2031C99.206 37.0156 99.5758 36.9219 100.029 36.9219C100.435 36.9219 100.791 37.0052 101.095 37.1719C101.4 37.3359 101.637 37.5859 101.806 37.9219C101.976 38.2552 102.06 38.6771 102.06 39.1875V43H101.138V39.25C101.138 38.7786 101.016 38.4115 100.771 38.1484C100.526 37.8828 100.19 37.75 99.7633 37.75C99.469 37.75 99.206 37.8138 98.9742 37.9414C98.7451 38.069 98.5641 38.2552 98.4312 38.5C98.2984 38.7448 98.232 39.0417 98.232 39.3906ZM105.804 37V37.7812H102.695V37H105.804ZM103.601 35.5625H104.523V41.2812C104.523 41.5417 104.561 41.737 104.636 41.8672C104.714 41.9948 104.813 42.0807 104.933 42.125C105.055 42.1667 105.184 42.1875 105.32 42.1875C105.421 42.1875 105.505 42.1823 105.57 42.1719C105.635 42.1589 105.687 42.1484 105.726 42.1406L105.913 42.9687C105.851 42.9922 105.764 43.0156 105.652 43.0391C105.54 43.0651 105.398 43.0781 105.226 43.0781C104.966 43.0781 104.71 43.0221 104.46 42.9102C104.213 42.7982 104.007 42.6276 103.843 42.3984C103.682 42.1693 103.601 41.8802 103.601 41.5312V35.5625ZM106.641 43V37H107.531V37.9062H107.594C107.703 37.6094 107.901 37.3685 108.188 37.1836C108.474 36.9987 108.797 36.9062 109.156 36.9062C109.224 36.9062 109.309 36.9076 109.41 36.9102C109.512 36.9128 109.589 36.9167 109.641 36.9219V37.8594C109.61 37.8516 109.538 37.8398 109.426 37.8242C109.317 37.806 109.201 37.7969 109.078 37.7969C108.787 37.7969 108.526 37.8581 108.297 37.9805C108.071 38.1003 107.891 38.2669 107.758 38.4805C107.628 38.6914 107.563 38.9323 107.563 39.2031V43H106.641ZM111.949 43.1406C111.569 43.1406 111.224 43.069 110.914 42.9258C110.604 42.7799 110.358 42.5703 110.176 42.2969C109.993 42.0208 109.902 41.6875 109.902 41.2969C109.902 40.9531 109.97 40.6745 110.105 40.4609C110.241 40.2448 110.422 40.0755 110.648 39.9531C110.875 39.8307 111.125 39.7396 111.398 39.6797C111.674 39.6172 111.952 39.5677 112.23 39.5313C112.595 39.4844 112.891 39.4492 113.117 39.4258C113.346 39.3997 113.513 39.3568 113.617 39.2969C113.724 39.237 113.777 39.1328 113.777 38.9844V38.9531C113.777 38.5677 113.672 38.2682 113.461 38.0547C113.253 37.8411 112.936 37.7344 112.512 37.7344C112.072 37.7344 111.727 37.8307 111.477 38.0234C111.227 38.2161 111.051 38.4219 110.949 38.6406L110.074 38.3281C110.23 37.9635 110.439 37.6797 110.699 37.4766C110.962 37.2708 111.249 37.1276 111.559 37.0469C111.871 36.9635 112.178 36.9219 112.48 36.9219C112.673 36.9219 112.895 36.9453 113.145 36.9922C113.397 37.0365 113.641 37.1289 113.875 37.2695C114.112 37.4102 114.309 37.6224 114.465 37.9062C114.621 38.1901 114.699 38.5703 114.699 39.0469V43H113.777V42.1875H113.73C113.668 42.3177 113.564 42.457 113.418 42.6055C113.272 42.7539 113.078 42.8802 112.836 42.9844C112.594 43.0885 112.298 43.1406 111.949 43.1406ZM112.09 42.3125C112.454 42.3125 112.762 42.2409 113.012 42.0977C113.264 41.9544 113.454 41.7695 113.582 41.543C113.712 41.3164 113.777 41.0781 113.777 40.8281V39.9844C113.738 40.0312 113.652 40.0742 113.52 40.1133C113.389 40.1497 113.238 40.1823 113.066 40.2109C112.897 40.237 112.732 40.2604 112.57 40.2812C112.411 40.2995 112.283 40.3151 112.184 40.3281C111.944 40.3594 111.72 40.4102 111.512 40.4805C111.306 40.5482 111.139 40.651 111.012 40.7891C110.887 40.9245 110.824 41.1094 110.824 41.3437C110.824 41.6641 110.943 41.9062 111.18 42.0703C111.419 42.2318 111.723 42.3125 112.09 42.3125ZM118.269 43.125C117.707 43.125 117.222 42.9922 116.816 42.7266C116.41 42.4609 116.097 42.0951 115.879 41.6289C115.66 41.1628 115.551 40.6302 115.551 40.0312C115.551 39.4219 115.663 38.8841 115.887 38.418C116.113 37.9492 116.428 37.5833 116.832 37.3203C117.238 37.0547 117.712 36.9219 118.254 36.9219C118.676 36.9219 119.056 37 119.394 37.1562C119.733 37.3125 120.01 37.5312 120.226 37.8125C120.443 38.0937 120.577 38.4219 120.629 38.7969H119.707C119.637 38.5234 119.48 38.2812 119.238 38.0703C118.999 37.8568 118.676 37.75 118.269 37.75C117.91 37.75 117.595 37.8437 117.324 38.0312C117.056 38.2161 116.846 38.4779 116.695 38.8164C116.547 39.1523 116.472 39.5469 116.472 40C116.472 40.4635 116.545 40.8672 116.691 41.2109C116.84 41.5547 117.048 41.8216 117.316 42.0117C117.587 42.2018 117.905 42.2969 118.269 42.2969C118.509 42.2969 118.726 42.2552 118.922 42.1719C119.117 42.0885 119.282 41.9688 119.418 41.8125C119.553 41.6562 119.65 41.4687 119.707 41.25H120.629C120.577 41.6042 120.448 41.9232 120.242 42.207C120.039 42.4883 119.769 42.7122 119.433 42.8789C119.1 43.043 118.712 43.125 118.269 43.125ZM124.036 37V37.7812H120.926V37H124.036ZM121.833 35.5625H122.754V41.2812C122.754 41.5417 122.792 41.737 122.868 41.8672C122.946 41.9948 123.045 42.0807 123.165 42.125C123.287 42.1667 123.416 42.1875 123.551 42.1875C123.653 42.1875 123.736 42.1823 123.801 42.1719C123.866 42.1589 123.919 42.1484 123.958 42.1406L124.145 42.9687C124.083 42.9922 123.995 43.0156 123.883 43.0391C123.771 43.0651 123.629 43.0781 123.458 43.0781C123.197 43.0781 122.942 43.0221 122.692 42.9102C122.445 42.7982 122.239 42.6276 122.075 42.3984C121.913 42.1693 121.833 41.8802 121.833 41.5312V35.5625ZM124.872 43V37H125.794V43H124.872ZM125.341 36C125.162 36 125.007 35.9388 124.876 35.8164C124.749 35.694 124.685 35.5469 124.685 35.375C124.685 35.2031 124.749 35.056 124.876 34.9336C125.007 34.8112 125.162 34.75 125.341 34.75C125.521 34.75 125.675 34.8112 125.802 34.9336C125.932 35.056 125.997 35.2031 125.997 35.375C125.997 35.5469 125.932 35.694 125.802 35.8164C125.675 35.9388 125.521 36 125.341 36ZM127.855 39.3906V43H126.933V37H127.823V37.9375H127.902C128.042 37.6328 128.256 37.388 128.542 37.2031C128.829 37.0156 129.198 36.9219 129.652 36.9219C130.058 36.9219 130.413 37.0052 130.718 37.1719C131.023 37.3359 131.26 37.5859 131.429 37.9219C131.598 38.2552 131.683 38.6771 131.683 39.1875V43H130.761V39.25C130.761 38.7786 130.639 38.4115 130.394 38.1484C130.149 37.8828 129.813 37.75 129.386 37.75C129.092 37.75 128.829 37.8138 128.597 37.9414C128.368 38.069 128.187 38.2552 128.054 38.5C127.921 38.7448 127.855 39.0417 127.855 39.3906ZM135.239 45.375C134.794 45.375 134.411 45.3177 134.091 45.2031C133.771 45.0911 133.504 44.9427 133.29 44.7578C133.079 44.5755 132.911 44.3802 132.786 44.1719L133.521 43.6563C133.604 43.7656 133.709 43.8906 133.837 44.0312C133.965 44.1745 134.139 44.2982 134.36 44.4023C134.584 44.5091 134.877 44.5625 135.239 44.5625C135.724 44.5625 136.123 44.4453 136.438 44.2109C136.754 43.9766 136.911 43.6094 136.911 43.1094V41.8906H136.833C136.765 42 136.669 42.1354 136.544 42.2969C136.422 42.4557 136.244 42.5977 136.013 42.7227C135.784 42.8451 135.474 42.9062 135.083 42.9062C134.599 42.9062 134.164 42.7917 133.778 42.5625C133.396 42.3333 133.092 42 132.868 41.5625C132.647 41.125 132.536 40.5937 132.536 39.9687C132.536 39.3542 132.644 38.819 132.86 38.3633C133.076 37.9049 133.377 37.5508 133.763 37.3008C134.148 37.0482 134.593 36.9219 135.099 36.9219C135.489 36.9219 135.799 36.987 136.028 37.1172C136.26 37.2448 136.437 37.3906 136.56 37.5547C136.685 37.7161 136.781 37.849 136.849 37.9531H136.942V37H137.833V43.1719C137.833 43.6875 137.716 44.1068 137.481 44.4297C137.25 44.7552 136.937 44.9935 136.544 45.1445C136.153 45.2982 135.718 45.375 135.239 45.375ZM135.208 42.0781C135.578 42.0781 135.89 41.9935 136.146 41.8242C136.401 41.6549 136.595 41.4115 136.728 41.0938C136.86 40.776 136.927 40.3958 136.927 39.9531C136.927 39.5208 136.862 39.1393 136.731 38.8086C136.601 38.4779 136.409 38.2187 136.153 38.0312C135.898 37.8437 135.583 37.75 135.208 37.75C134.817 37.75 134.492 37.849 134.231 38.0469C133.974 38.2448 133.78 38.5104 133.649 38.8438C133.522 39.1771 133.458 39.5469 133.458 39.9531C133.458 40.3698 133.523 40.7383 133.653 41.0586C133.786 41.3763 133.981 41.6263 134.239 41.8086C134.5 41.9883 134.823 42.0781 135.208 42.0781ZM141.639 43V35H142.608V42.1406H146.327V43H141.639ZM145.776 35.8594V35H151.776V35.8594H149.26V43H148.291V35.8594H145.776ZM155.19 43H152.721V35H155.299C156.075 35 156.739 35.1602 157.291 35.4805C157.843 35.7982 158.266 36.2552 158.561 36.8516C158.855 37.4453 159.002 38.1562 159.002 38.9844C159.002 39.8177 158.854 40.5352 158.557 41.1367C158.26 41.7357 157.828 42.1966 157.26 42.5195C156.692 42.8398 156.002 43 155.19 43ZM153.69 42.1406H155.127C155.789 42.1406 156.337 42.013 156.772 41.7578C157.207 41.5026 157.531 41.1393 157.744 40.668C157.958 40.1966 158.065 39.6354 158.065 38.9844C158.065 38.3385 157.959 37.7826 157.748 37.3164C157.537 36.8477 157.222 36.4883 156.803 36.2383C156.384 35.9857 155.862 35.8594 155.237 35.8594H153.69V42.1406Z" fill="white" style="&#10;    fill: black;&#10;"/>
<path d="M146.204 30L146.008 29.72L157.46 14.964H147.38L147.94 12.192H159.448L159.056 14.124L149.508 30H146.204Z" fill="white" style="&#10;    fill: black;&#10;"/>
</svg>